<?xml version="1.0" encoding="UTF-8"?>
<svg width="256px" height="256px" viewBox="0 0 256 256" version="1.1" xmlns="http://www.w3.org/2000/svg" xmlns:xlink="http://www.w3.org/1999/xlink">
    <title>BIGVU LOGO</title>
    <g id="256x256" stroke="none" stroke-width="1" fill="none" fill-rule="evenodd">
        <polygon id="Rectangle" fill="#AA58EE" points="0 0 256 0 256 256 0 256"></polygon>
        <path d="M55.9582059,124.079275 C83.5795844,144.163822 57.7844913,186.852282 27.1126789,184.285157 L27,73.4154216 C59.0825363,67.9566549 77.9051509,105.532524 55.9582059,124.079275 Z M226.031482,71.5 L226.031102,71.7870894 C226.031065,71.8144312 226.031027,71.843726 226.030985,71.8749739 L226.030171,72.4901654 C226.030104,72.5409431 226.030034,72.5936738 226.029961,72.6483575 L226.02924,73.1932414 C226.029152,73.259643 226.029062,73.3279976 226.028969,73.3983052 L226.028061,74.0838043 C226.027952,74.1658298 226.027841,74.2498084 226.027728,74.3357399 L226.027014,74.8747648 C226.026393,75.3434821 226.025708,75.8610242 226.024958,76.427391 L226.024028,77.130467 C226.012967,85.4853534 225.989597,103.13842 225.953917,130.089667 C226.855348,165.243506 221.820026,182.369724 209.650818,181.468341 C199.302442,180.702173 184.41097,175.609375 184.41097,139.554186 C184.41097,104.220102 184.843837,81.4384604 184.861152,80.5413284 L184.861686,80.5138255 L184.861686,80.5138255 C184.861686,80.5138255 191.574911,79.356418 195.710858,78.5346586 L196.270305,78.4223231 C197.622433,78.1476814 198.608356,77.9223343 198.8337,77.8096608 C199.050043,77.7014942 199.136584,79.6701065 199.143166,83.0052395 L199.143174,83.867081 C199.132776,89.6487566 198.922206,98.8826075 198.725343,108.520905 L198.695194,110.0065 C198.670207,111.24647 198.645627,112.490519 198.621902,113.732224 L198.593872,115.220734 C198.479036,121.414747 198.390113,127.485949 198.383443,132.631548 L198.383041,133.244525 C198.383041,153.525567 200.340919,161.637988 205.749449,161.637988 C211.08864,161.637988 211.74739,155.928288 211.763403,144.075291 L211.763711,75.1055529 C211.763711,75.1055529 221.749683,73.3027765 226.031482,71.5 Z M70.5315207,82.0164235 C71.8149008,82.2303123 73.2674474,82.4610995 74.7366164,82.6887226 L75.3668332,82.7860231 L75.3668332,82.7860231 L75.996417,82.8825852 C79.8714138,83.4750532 83.5580927,84.0053821 84.2405619,84.1032217 L84.3458167,84.1182934 C84.3505947,84.1189764 84.3530115,84.1193216 84.3530115,84.1193216 L84.95425,171.553167 L70.8316566,173.656082 L70.5315207,82.0164235 Z M181.030603,81.4151569 C180.805245,81.6405039 164.805011,171.102473 164.805011,171.102473 L149.030135,170.201096 L133.255202,85.4714039 C133.255202,85.4714039 144.072263,86.1474451 149.030135,85.4714039 L157.142902,149.694707 L165.9318,83.6686275 C165.9318,83.6686275 172.241762,83.4432804 181.030603,81.4151569 Z M129.654026,87.1245176 L127.811528,101.546616 C96.573626,89.3734392 93.7494599,152.022065 116.8295,154.72801 L118.015771,154.502663 L118.015771,135.197818 L111.705809,135.197818 L111.705809,122.278318 C113.890026,122.278318 116.290261,122.224314 118.719575,122.163041 L120.341375,122.121629 C124.396388,122.017968 128.416787,121.922963 131.537126,122.052971 L131.537126,166.445949 C76.5503314,195.096299 71.0741877,67.6853627 129.654026,87.1245176 Z M40.6340168,132.4928 C40.418582,139.725457 40.7872636,153.894231 40.6340168,164.041064 C57.3977777,165.695997 58.3379628,130.497998 40.6340168,132.4928 Z M40.4933999,90.4289824 L40.4933999,117.470402 C55.8175833,118.874741 55.8175833,88.9588529 40.4933999,90.4289824 Z" id="Combined-Shape" fill="#FFFFFF"></path>
    </g>
</svg>